<svg width="20" height="18" viewBox="0 0 20 18" fill="none" xmlns="http://www.w3.org/2000/svg">
<path d="M13.4588 9.39202L12.4294 8.36256C12.5857 7.54696 12.3712 6.85123 11.7859 6.27538C11.2007 5.69953 10.4985 5.47859 9.67936 5.61256L8.64989 4.5831C8.86261 4.48437 9.08148 4.41327 9.30653 4.36979C9.53158 4.32631 9.7628 4.30457 10.0002 4.30457C11.0402 4.30457 11.9231 4.66742 12.6488 5.39311C13.3745 6.11881 13.7373 7.00168 13.7373 8.04173C13.7373 8.27912 13.7171 8.51034 13.6765 8.73539C13.636 8.96044 13.5634 9.17931 13.4588 9.39202ZM16.3745 12.2443L15.3627 11.2959C15.9432 10.8528 16.4627 10.3601 16.921 9.81777C17.3794 9.27541 17.7613 8.6834 18.0669 8.04173C17.303 6.49867 16.1991 5.27263 14.7554 4.3636C13.3116 3.45458 11.7266 3.00006 10.0002 3.00006C9.55713 3.00006 9.12554 3.03062 8.7054 3.09173C8.28526 3.15284 7.8613 3.24451 7.43352 3.36673L6.36529 2.29849C6.94818 2.06815 7.54254 1.89833 8.14836 1.78903C8.75417 1.67973 9.37145 1.62508 10.0002 1.62508C11.9698 1.62508 13.7791 2.13689 15.4279 3.1605C17.0767 4.18411 18.3448 5.5691 19.2321 7.31545C19.2932 7.43179 19.3375 7.54902 19.3651 7.66713C19.3928 7.78525 19.4066 7.91011 19.4066 8.04173C19.4066 8.17335 19.3951 8.29821 19.3722 8.41633C19.3493 8.53444 19.3073 8.65166 19.2461 8.768C18.9218 9.45786 18.5146 10.0948 18.0245 10.6789C17.5345 11.263 16.9845 11.7848 16.3745 12.2443ZM10.0002 14.4584C8.0705 14.4584 6.30181 13.9427 4.69413 12.9115C3.08644 11.8802 1.80839 10.522 0.859992 8.83675C0.783603 8.72041 0.727786 8.59408 0.69254 8.45776C0.657279 8.32143 0.639648 8.18276 0.639648 8.04173C0.639648 7.9007 0.654926 7.76438 0.685482 7.63276C0.716037 7.50114 0.76951 7.37245 0.845898 7.2467C1.18672 6.62384 1.57278 6.03065 2.00408 5.46713C2.43539 4.90361 2.93133 4.39857 3.4919 3.952L1.42234 1.86832C1.29542 1.732 1.23284 1.57011 1.23461 1.38267C1.23637 1.19523 1.30364 1.03511 1.43644 0.902316C1.56923 0.769521 1.73024 0.703125 1.91945 0.703125C2.10865 0.703125 2.26965 0.769521 2.40244 0.902316L17.5979 16.0978C17.7248 16.2247 17.7921 16.3819 17.7998 16.5693C17.8074 16.7568 17.7401 16.9216 17.5979 17.0638C17.4651 17.1966 17.3041 17.263 17.1149 17.263C16.9257 17.263 16.7647 17.1966 16.6319 17.0638L13.406 13.866C12.8654 14.0752 12.3098 14.2263 11.7392 14.3191C11.1687 14.412 10.589 14.4584 10.0002 14.4584ZM4.45791 4.91798C3.92083 5.33283 3.43811 5.80204 3.00974 6.32561C2.58136 6.84917 2.22262 7.42121 1.93352 8.04173C2.69741 9.58478 3.80123 10.8108 5.24498 11.7199C6.68873 12.6289 8.2738 13.0834 10.0002 13.0834C10.3939 13.0834 10.7814 13.0569 11.1628 13.0041C11.5442 12.9512 11.9229 12.8695 12.2989 12.759L11.139 11.5709C10.9533 11.652 10.7679 11.7069 10.5828 11.7357C10.3977 11.7645 10.2035 11.7789 10.0002 11.7789C8.96014 11.7789 8.07727 11.416 7.35157 10.6903C6.62588 9.96465 6.26303 9.08178 6.26303 8.04173C6.26303 7.83841 6.2789 7.64421 6.31063 7.45912C6.34236 7.27401 6.39583 7.08862 6.47105 6.90293L4.45791 4.91798Z" fill="#9FA6B2"/>
</svg>
