<svg width="28" height="28" viewBox="0 0 28 28" fill="none" xmlns="http://www.w3.org/2000/svg">
<path fill-rule="evenodd" clip-rule="evenodd" d="M18.0189 9.24188C16.9438 8.21253 15.4799 7.64067 13.993 7.66355C11.2481 7.66355 8.93779 9.4935 8.09143 11.9868L4.61452 9.28763C6.39873 5.74209 10.0129 3.5004 13.993 3.5004C16.6007 3.47752 19.1169 4.43825 21.0155 6.22246L18.0189 9.24188ZM8.09204 16.0137C7.65743 14.7098 7.65743 13.2916 8.09204 11.9878L4.61513 9.28858C3.12842 12.262 3.12829 15.7614 4.61474 18.7121L4.61452 18.7123C6.39873 22.2578 10.0129 24.4995 13.993 24.4995C16.8224 24.4995 19.1965 23.5663 20.9339 21.9724L20.9472 21.9828C22.9373 20.13 24.081 17.4308 24.081 14.2512C24.081 13.5421 24.0124 12.8101 23.898 12.1239H13.9934V16.1727H19.6663C19.4375 17.4765 18.6827 18.6203 17.5618 19.3522L17.6797 19.4438L17.5615 19.3527C16.6236 19.9932 15.4113 20.3592 13.993 20.3592C11.2481 20.3592 8.93779 18.5064 8.09143 16.036L4.77633 18.5877L8.09204 16.0137Z" fill="#6E6E82"/>
</svg>
