<svg width="138" height="24" viewBox="0 0 138 24" fill="none" xmlns="http://www.w3.org/2000/svg">
<path d="M37.9422 17.2153C37.8317 17.2153 37.7422 17.1258 37.7422 17.0153V4.15987C37.7422 4.04941 37.8317 3.95987 37.9422 3.95987H39.5839C39.6553 3.95987 39.7213 3.99793 39.757 4.05973L45.1225 13.3362C45.1997 13.4695 45.1035 13.6363 44.9494 13.6363H44.6158C44.4624 13.6363 44.3661 13.4708 44.4419 13.3374L49.7198 4.06097C49.7553 3.99847 49.8217 3.95987 49.8936 3.95987H51.5347C51.645 3.95987 51.7345 4.04925 51.7347 4.1596L51.7524 17.015C51.7526 17.1256 51.663 17.2153 51.5524 17.2153H49.7026C49.5923 17.2153 49.5028 17.126 49.5026 17.0157L49.485 7.78869C49.4848 7.69259 49.5627 7.61459 49.6588 7.61459C49.7926 7.61459 49.8762 7.7596 49.8092 7.87545L45.3356 15.6006C45.2999 15.6624 45.2339 15.7004 45.1626 15.7004H44.3314C44.2605 15.7004 44.1949 15.6629 44.159 15.6018L39.6384 7.91546C39.5602 7.78236 39.6561 7.61459 39.8105 7.61459C39.9208 7.61459 40.0102 7.70398 40.0102 7.81424V17.0153C40.0102 17.1258 39.9207 17.2153 39.8102 17.2153H37.9422Z" fill="#F1F1F5"/>
<path d="M61.0274 17.4047C60.0275 17.4047 59.1069 17.2342 58.2655 16.8934C57.4241 16.5525 56.6925 16.0791 56.0707 15.4732C55.4488 14.8546 54.9671 14.135 54.6257 13.3144C54.2843 12.4812 54.1136 11.5723 54.1136 10.5876C54.1136 9.6029 54.2843 8.70027 54.6257 7.87969C54.9671 7.0465 55.4488 6.32691 56.0707 5.72095C56.6925 5.10236 57.4241 4.62264 58.2655 4.28179C59.1069 3.94094 60.0214 3.77051 61.0091 3.77051C62.009 3.77051 62.9235 3.94094 63.7526 4.28179C64.594 4.62264 65.3256 5.10236 65.9475 5.72095C66.5694 6.32691 67.051 7.0465 67.3924 7.87969C67.7339 8.70027 67.9046 9.6029 67.9046 10.5876C67.9046 11.5723 67.7339 12.4812 67.3924 13.3144C67.051 14.1476 66.5694 14.8672 65.9475 15.4732C65.3256 16.0791 64.594 16.5525 63.7526 16.8934C62.9235 17.2342 62.0151 17.4047 61.0274 17.4047ZM61.0091 15.2459C61.6553 15.2459 62.2528 15.1323 62.8015 14.9051C63.3503 14.6778 63.8258 14.3559 64.2282 13.9393C64.6306 13.5101 64.9415 13.0178 65.161 12.4623C65.3927 11.8942 65.5085 11.2693 65.5085 10.5876C65.5085 9.90588 65.3927 9.2873 65.161 8.73183C64.9415 8.16374 64.6306 7.67139 64.2282 7.2548C63.8258 6.82557 63.3503 6.49734 62.8015 6.27011C62.2528 6.04287 61.6553 5.92925 61.0091 5.92925C60.3628 5.92925 59.7653 6.04287 59.2166 6.27011C58.6801 6.49734 58.2045 6.82557 57.79 7.2548C57.3876 7.67139 57.0705 8.16374 56.8389 8.73183C56.6194 9.2873 56.5096 9.90588 56.5096 10.5876C56.5096 11.2567 56.6194 11.8753 56.8389 12.4434C57.0705 13.0114 57.3876 13.5101 57.79 13.9393C58.1923 14.3559 58.6679 14.6778 59.2166 14.9051C59.7653 15.1323 60.3628 15.2459 61.0091 15.2459Z" fill="#F1F1F5"/>
<path d="M76.223 17.4047C75.2231 17.4047 74.3025 17.2406 73.4612 16.9123C72.632 16.5715 71.9065 16.0981 71.2846 15.4921C70.6627 14.8735 70.1811 14.1476 69.8397 13.3144C69.4982 12.4812 69.3275 11.5723 69.3275 10.5876C69.3275 9.6029 69.4982 8.69396 69.8397 7.86076C70.1811 7.02756 70.6627 6.30798 71.2846 5.70201C71.9187 5.08343 72.6564 4.61002 73.4977 4.28179C74.3391 3.94094 75.2597 3.77051 76.2596 3.77051C77.3448 3.77051 78.3203 3.95356 79.1861 4.31966C80.006 4.66157 80.7036 5.15213 81.2789 5.79133C81.3482 5.86833 81.3434 5.98568 81.2705 6.0593L80.0433 7.29882C79.9644 7.37856 79.8355 7.37747 79.7548 7.2995C79.2953 6.85541 78.8009 6.5249 78.2716 6.30798C77.6985 6.05549 77.0644 5.92925 76.3693 5.92925C75.6987 5.92925 75.0768 6.04287 74.5037 6.27011C73.9306 6.49734 73.4368 6.81926 73.0222 7.23586C72.6076 7.65246 72.2845 8.1448 72.0528 8.71289C71.8333 9.28098 71.7236 9.90588 71.7236 10.5876C71.7236 11.2567 71.8333 11.8753 72.0528 12.4434C72.2845 13.0114 72.6076 13.5101 73.0222 13.9393C73.4368 14.3559 73.9245 14.6778 74.4854 14.9051C75.0463 15.1323 75.6682 15.2459 76.3511 15.2459C76.9851 15.2459 77.5948 15.1449 78.1801 14.943C78.716 14.7504 79.2275 14.4462 79.7144 14.0302C79.8048 13.953 79.9427 13.9661 80.0132 14.0618L81.1225 15.5672C81.1854 15.6526 81.1709 15.7725 81.0874 15.8378C80.4505 16.3353 79.7192 16.7187 78.8934 16.9881C78.0155 17.2658 77.1254 17.4047 76.223 17.4047ZM79.1566 15.422C79.058 15.4079 78.9849 15.3235 78.9849 15.224V10.6361C78.9849 10.5256 79.0744 10.4361 79.1849 10.4361H81.0346C81.1451 10.4361 81.2346 10.5256 81.2346 10.6361V15.4887C81.2346 15.6104 81.1268 15.7039 81.0063 15.6867L79.1566 15.422Z" fill="#F1F1F5"/>
<path d="M82.682 17.2153C82.538 17.2153 82.4412 17.0677 82.4986 16.9356L88.0863 4.08015C88.118 4.00711 88.19 3.95987 88.2697 3.95987H90.3487C90.4283 3.95987 90.5003 4.00701 90.5321 4.07993L96.1374 16.9354C96.195 17.0675 96.0982 17.2153 95.9541 17.2153H93.9056C93.8247 17.2153 93.7518 17.1666 93.7208 17.0919L88.93 5.54311C88.8754 5.41141 88.9722 5.26648 89.1148 5.26648H89.4673C89.6098 5.26648 89.7066 5.4112 89.6522 5.54287L84.8791 17.0917C84.8481 17.1665 84.7752 17.2153 84.6942 17.2153H82.682ZM85.3061 14.1476C85.1698 14.1476 85.0734 14.0141 85.1163 13.8847L85.6239 12.3532C85.651 12.2714 85.7275 12.2161 85.8137 12.2161H92.4387C92.5249 12.2161 92.6014 12.2714 92.6286 12.3532L93.1361 13.8847C93.179 14.0141 93.0827 14.1476 92.9463 14.1476H85.3061Z" fill="#F1F1F5"/>
<path fill-rule="evenodd" clip-rule="evenodd" d="M2 0C0.895431 0 0 0.895433 0 2V17.7971C0 18.9017 0.895429 19.7971 2 19.7971H22.2096L26.6178 23.5557C27.267 24.1092 28.2666 23.6479 28.2666 22.7948L28.2669 17.8264C28.267 17.8166 28.2671 17.8069 28.2671 17.7971V2C28.2671 0.895431 27.3716 0 26.2671 0H2ZM5.37365 8.60826C5.92594 8.60826 6.37365 9.05597 6.37365 9.60826V9.77026C6.37365 10.6828 6.98668 11.7238 8.42109 12.601C9.82829 13.4614 11.8454 14.0309 14.1332 14.0309C16.4211 14.0309 18.4382 13.4614 19.8454 12.601C21.2798 11.7238 21.8928 10.6828 21.8928 9.77026V9.60826C21.8928 9.05597 22.3405 8.60826 22.8928 8.60826H23.1099C23.6621 8.60826 24.1099 9.05597 24.1099 9.60826V9.77026C24.1099 11.8526 22.7377 13.5229 20.9625 14.6084C19.1601 15.7105 16.7431 16.3549 14.1332 16.3549C11.5234 16.3549 9.10642 15.7105 7.304 14.6084C5.52879 13.5229 4.15663 11.8526 4.15663 9.77026V9.60826C4.15663 9.05597 4.60434 8.60826 5.15663 8.60826H5.37365Z" fill="url(#paint0_linear_2578_4191)"/>
<path d="M98.3211 17.2153C98.2106 17.2153 98.1211 17.1258 98.1211 17.0153V15.6374C98.1211 15.5923 98.1363 15.5486 98.1642 15.5133L106.149 5.41753C106.25 5.29038 106.452 5.32943 106.498 5.48489L106.587 5.78616C106.625 5.91432 106.529 6.04287 106.395 6.04287H98.4491C98.3387 6.04287 98.2491 5.95333 98.2491 5.84287V4.15987C98.2491 4.04941 98.3387 3.95987 98.4491 3.95987H108.603C108.713 3.95987 108.803 4.04941 108.803 4.15987V5.5378C108.803 5.58283 108.788 5.62655 108.76 5.66187L100.77 15.7642C100.67 15.8901 100.47 15.8533 100.422 15.7003L100.325 15.3925C100.284 15.2636 100.38 15.1323 100.516 15.1323H108.84C108.951 15.1323 109.04 15.2219 109.04 15.3323V17.0153C109.04 17.1258 108.951 17.2153 108.84 17.2153H98.3211Z" fill="url(#paint1_linear_2578_4191)"/>
<path d="M116.892 17.4047C115.892 17.4047 114.972 17.2342 114.13 16.8934C113.289 16.5525 112.557 16.0791 111.935 15.4732C111.314 14.8546 110.832 14.135 110.49 13.3144C110.149 12.4812 109.978 11.5723 109.978 10.5876C109.978 9.6029 110.149 8.70027 110.49 7.87969C110.832 7.0465 111.314 6.32691 111.935 5.72095C112.557 5.10236 113.289 4.62264 114.13 4.28179C114.972 3.94094 115.886 3.77051 116.874 3.77051C117.874 3.77051 118.788 3.94094 119.617 4.28179C120.459 4.62264 121.19 5.10236 121.812 5.72095C122.434 6.32691 122.916 7.0465 123.257 7.87969C123.599 8.70027 123.769 9.6029 123.769 10.5876C123.769 11.5723 123.599 12.4812 123.257 13.3144C122.916 14.1476 122.434 14.8672 121.812 15.4732C121.19 16.0791 120.459 16.5525 119.617 16.8934C118.788 17.2342 117.88 17.4047 116.892 17.4047ZM116.874 15.2459C117.52 15.2459 118.118 15.1323 118.666 14.9051C119.215 14.6778 119.691 14.3559 120.093 13.9393C120.495 13.5101 120.806 13.0178 121.026 12.4623C121.257 11.8942 121.373 11.2693 121.373 10.5876C121.373 9.90588 121.257 9.2873 121.026 8.73183C120.806 8.16374 120.495 7.67139 120.093 7.2548C119.691 6.82557 119.215 6.49734 118.666 6.27011C118.118 6.04287 117.52 5.92925 116.874 5.92925C116.228 5.92925 115.63 6.04287 115.081 6.27011C114.545 6.49734 114.069 6.82557 113.655 7.2548C113.252 7.67139 112.935 8.16374 112.704 8.73183C112.484 9.2873 112.374 9.90588 112.374 10.5876C112.374 11.2567 112.484 11.8753 112.704 12.4434C112.935 13.0114 113.252 13.5101 113.655 13.9393C114.057 14.3559 114.533 14.6778 115.081 14.9051C115.63 15.1323 116.228 15.2459 116.874 15.2459Z" fill="url(#paint2_linear_2578_4191)"/>
<path d="M124.422 17.2153C124.278 17.2153 124.182 17.0677 124.239 16.9356L129.827 4.08015C129.858 4.00711 129.93 3.95987 130.01 3.95987H132.089C132.169 3.95987 132.241 4.00701 132.272 4.07993L137.878 16.9354C137.935 17.0675 137.839 17.2153 137.694 17.2153H135.646C135.565 17.2153 135.492 17.1666 135.461 17.0919L130.67 5.54311C130.616 5.41141 130.713 5.26648 130.855 5.26648H131.208C131.35 5.26648 131.447 5.4112 131.393 5.54287L126.619 17.0917C126.588 17.1665 126.516 17.2153 126.435 17.2153H124.422ZM127.047 14.1476C126.91 14.1476 126.814 14.0141 126.857 13.8847L127.364 12.3532C127.391 12.2714 127.468 12.2161 127.554 12.2161H134.179C134.265 12.2161 134.342 12.2714 134.369 12.3532L134.877 13.8847C134.919 14.0141 134.823 14.1476 134.687 14.1476H127.047Z" fill="url(#paint3_linear_2578_4191)"/>
<defs>
<linearGradient id="paint0_linear_2578_4191" x1="0" y1="0" x2="28.827" y2="0.698823" gradientUnits="userSpaceOnUse">
<stop stop-color="#5097FA"/>
<stop offset="1" stop-color="#5363FF"/>
</linearGradient>
<linearGradient id="paint1_linear_2578_4191" x1="98.1211" y1="3.77051" x2="138.669" y2="6.19091" gradientUnits="userSpaceOnUse">
<stop stop-color="#5097FA"/>
<stop offset="1" stop-color="#5363FF"/>
</linearGradient>
<linearGradient id="paint2_linear_2578_4191" x1="98.1211" y1="3.77051" x2="138.669" y2="6.19091" gradientUnits="userSpaceOnUse">
<stop stop-color="#5097FA"/>
<stop offset="1" stop-color="#5363FF"/>
</linearGradient>
<linearGradient id="paint3_linear_2578_4191" x1="98.1211" y1="3.77051" x2="138.669" y2="6.19091" gradientUnits="userSpaceOnUse">
<stop stop-color="#5097FA"/>
<stop offset="1" stop-color="#5363FF"/>
</linearGradient>
</defs>
</svg>
